<svg height="512pt" viewBox="0 -10 512 512" width="512pt" xmlns="http://www.w3.org/2000/svg"><path d="m132.503906 109.066406v-32.496094c0-36.761718 29.90625-66.671874 66.671875-66.671874h113.648438c36.765625 0 66.671875 29.910156 66.671875 66.671874v70.277344h-37v-70.277344c0-16.359374-13.308594-29.671874-29.671875-29.671874h-113.648438c-16.363281 0-29.671875 13.3125-29.671875 29.671874v69.945313h-37zm0 0" fill="#636363"/><path d="m169.503906 109.066406h-27.644531c-3.148437 0-6.265625.117188-9.355469.332032v37.113281h37zm0 0" fill="#424242"/><path d="m342.496094 146.847656h37v-37.449218c-3.089844-.214844-6.210938-.332032-9.355469-.332032h-27.644531zm0 0" fill="#424242"/><path d="m473.402344 481.566406h-434.804688c-15.792968 0-28.597656-12.804687-28.597656-28.597656v-174.597656c0-72.820313 59.035156-131.855469 131.859375-131.855469h228.28125c72.824219 0 131.859375 59.035156 131.859375 131.855469v174.597656c0 15.792969-12.804688 28.597656-28.597656 28.597656zm0 0" fill="#eeedee"/><path d="m370.140625 146.511719h-58c72.824219 0 131.859375 59.035156 131.859375 131.859375v174.597656c0 15.792969-12.804688 28.59375-28.597656 28.59375h58c15.792968 0 28.597656-12.800781 28.597656-28.59375v-174.597656c0-72.820313-59.035156-131.859375-131.859375-131.859375zm0 0" fill="#cccbcc"/><path d="m10 452.96875c0 15.792969 12.804688 28.597656 28.597656 28.597656h434.804688c15.792968 0 28.597656-12.804687 28.597656-28.597656v-36.402344h-492zm0 0" fill="#ef2d57"/><path d="m444 416.566406v36.402344c0 15.792969-12.804688 28.597656-28.597656 28.597656h58c15.792968 0 28.597656-12.804687 28.597656-28.597656v-36.402344zm0 0" fill="#bf2445"/><path d="m334.5 262.066406h-49.5v-49.5h-58v49.5h-49.5v58h49.5v49.5h58v-49.5h49.5zm0 0" fill="#ef2d57"/><path d="m285 212.566406h-29v157h29v-49.5h49.5v-58h-49.5zm0 0" fill="#bf2445"/><path d="m388.253906 138.882812v-64.03125c0-41.273437-33.578125-74.851562-74.851562-74.851562h-114.804688c-41.273437 0-74.851562 33.578125-74.851562 74.851562v64.035157c-69.519532 7.785156-123.746094 66.914062-123.746094 138.476562v178c0 19.90625 16.191406 36.097657 36.097656 36.097657h439.804688c19.90625 0 36.097656-16.191407 36.097656-36.097657v-178c0-71.5625-54.226562-130.691406-123.746094-138.480469zm-249.507812-64.03125c0-33 26.851562-59.851562 59.851562-59.851562h114.804688c33 0 59.851562 26.851562 59.851562 59.851562v63.160157c-2.796875-.011719-15.832031-.003907-22.375-.007813v-63.152344c0-20.664062-16.8125-37.476562-37.476562-37.476562h-114.804688c-20.664062 0-37.476562 16.8125-37.476562 37.476562v32.824219c0 4.144531 3.359375 7.5 7.5 7.5 4.144531 0 7.5-3.355469 7.5-7.5v-32.824219c0-12.390624 10.085937-22.476562 22.476562-22.476562h114.804688c12.394531 0 22.476562 10.085938 22.476562 22.476562v63.152344c-19.988281.003906-194.59375-.003906-197.132812.007813zm-103.96875 401.542969c-10.898438-.816406-19.777344-9.933593-19.777344-21.320312v-29.273438h77.449219c4.140625 0 7.5-3.359375 7.5-7.5s-3.359375-7.5-7.5-7.5h-77.449219v-133.4375c0-68.570312 55.789062-124.359375 124.359375-124.359375h233.28125c68.425781 0 124.359375 55.660156 124.359375 124.359375v133.4375h-367.585938c-4.140624 0-7.5 3.359375-7.5 7.5s3.359376 7.5 7.5 7.5h367.585938c-.011719 32.003907.03125 29.320313-.066406 30.878907-.84375 11.261718-10.328125 19.625-20.738282 19.765624-.214843.007813-439.46875.070313-441.417968-.050781zm0 0"/><path d="m176.703125 328.320312h42.5v42.503907c0 4.140625 3.359375 7.5 7.5 7.5h58.59375c4.140625 0 7.5-3.359375 7.5-7.5v-42.503907h42.5c4.144531 0 7.5-3.355468 7.5-7.5v-58.589843c0-4.140625-3.355469-7.5-7.5-7.5h-42.5v-42.503907c0-4.140624-3.359375-7.5-7.5-7.5h-58.59375c-4.140625 0-7.5 3.359376-7.5 7.5v42.503907h-42.5c-4.144531 0-7.5 3.359375-7.5 7.5v58.589843c0 4.144532 3.355469 7.5 7.5 7.5zm7.5-58.589843h42.5c4.144531 0 7.5-3.359375 7.5-7.5v-42.503907h43.59375v42.503907c0 4.140625 3.355469 7.5 7.5 7.5h42.5v43.589843h-42.5c-4.144531 0-7.5 3.359376-7.5 7.5v42.503907h-43.59375v-42.503907c0-4.140624-3.355469-7.5-7.5-7.5h-42.5zm0 0"/></svg>